<svg xmlns="http://www.w3.org/2000/svg" width="511" height="526" viewBox="0 0 511 526">
    <g fill="none" fill-rule="evenodd">
        <path fill="#E7B3FF" fill-opacity=".239" fill-rule="nonzero" d="M329.95 171.79a38.98 38.98 0 0 1 3.363-2.85v-16.43c-4.46-.482-8.81-1.579-14.24-1.579-16.776 0-34.287 16.268-52.425 16.268-24.845 0-27.117-23.498-27.117-30.728 0-21.619 15.728-20.8 27.72-25.909 11.545-4.922 21.693-10.845 30.732-10.845 17.222 0 16.806 6.025 33.745 6.025.53-.002 1.059-.033 1.585-.09V40c0-22.091-17.909-40-40-40H40C17.909 0 0 17.909 0 40v253.266c0 22.091 17.909 40 40 40h293.295V297.27c-16.505-1.054-32.745-4.32-35.09-10.032-.776-6.025.17-31.451 5.641-57.751-11.076 12.05-27.93 30.023-30.853 33.639-4.32 5.344-14.836 31.078-17.294 47.213-1.555 10.34-8.744 10.803-11.588 10.803-2.844 0-6.827-5.344-6.827-8.76 0-6.37 7.43-18.028 10.358-28 2.266-7.712 4.435-24.45 10.92-38.332 5.58-11.942 24.452-32.006 30.792-38.79a5.127 5.127 0 0 1-1.205-2.814c-.025-5.724 29.96-37.862 41.802-32.656z"/>
        <path fill="#FFF" fill-opacity=".463" fill-rule="nonzero" d="M334.506 458.614c-97.476 0-176.5 15.021-176.5 33.554 0 18.534 79.024 33.549 176.5 33.549S511 510.696 511 492.168c0-18.527-79.018-33.554-176.494-33.554zm-95.415 31.144l-9.165-14.803 5.923-8.002 10.612 5.423.054 7.604 3.85 4.217h9.431l3.616 5.555-24.32.006zm196.741-1.114H399.52v-12.05l11.45-.603 24.862 7.417v5.236z"/>
        <path stroke="#FFF" stroke-linecap="round" stroke-linejoin="round" stroke-width="5" d="M207.268 34.597v92.914h32.552"/>
        <path stroke="#000" stroke-linecap="round" stroke-linejoin="round" stroke-width="2" d="M399.52 476.593v12.069h36.312v-5.254l-24.863-7.417M246.461 472.376l.054 7.604 3.85 4.223h9.431l3.61 5.555h-24.315l-9.165-14.803 5.923-8.002"/>
        <path fill="#000" fill-rule="nonzero" d="M368.523 294.94s45.508 68.084 49.473 82.804c3.965 14.72-5.725 99.042-5.725 99.042h-13.426s-10.13-60.746-7.267-82.1c-10.136-6.157-54.125-34.12-57.674-48.532"/>
        <path fill="#000" fill-rule="nonzero" d="M298.224 287.24l-10.786 97.168-52.366 82.033 11.45 7.483 77.48-84.515s40.284-84.082 44.52-94.47c-8.17 2.706-55.776 7.526-70.298-7.7z"/>
        <path stroke="#000" stroke-width="2.5" d="M289.354 207.267c-6.34 6.784-25.213 26.848-30.793 38.79-6.484 13.858-8.653 30.62-10.919 38.332-2.928 9.972-10.358 21.63-10.358 28 0 3.416 3.983 8.76 6.827 8.76s10.033-.47 11.606-10.809c2.459-16.135 12.974-41.87 17.294-47.213 3.616-4.453 28.322-30.639 37.361-40.815M371.951 173.098c12.721 8.267 29.66 37.82 26.038 41.194-2.03 1.892-8.478 4.983-15.317 7.435"/>
        <path stroke="#000" stroke-linecap="round" stroke-width="2.5" d="M364.112 166.747c35.866 19.504 10.376 108.044 4.41 128.193-11.449 5.175-65.845 3.133-70.298-7.7-.777-6.026.169-31.452 5.64-57.752"/>
        <path stroke="#000" stroke-width="2.5" d="M329.661 171.664c4.821-4.435 10.28-7.38 16.53-8.267"/>
        <path stroke="#000" stroke-linecap="round" stroke-linejoin="round" stroke-width="2.5" d="M356.838 160.065c.716.135 1.442.204 2.17.205 9.75 0 17.656-12.375 17.656-27.643a42.171 42.171 0 0 0-.874-8.604M371.096 121.522a7.127 7.127 0 0 0 2.211-4.934c.928 1.632 2.26 6.091 2.483 7.435 1.042-1.356 3.085-3.615 3.085-7.719 0-8.314-6.532-15.382-20.633-15.382-6.026 0-20.488 4.82-26.514 4.82-16.939 0-16.523-6.025-33.745-6.025-9.039 0-19.187 5.923-30.732 10.845-11.992 5.11-27.72 4.29-27.72 25.909 0 7.23 2.272 30.728 27.117 30.728 18.138 0 35.65-16.268 52.426-16.268 6.966 0 12.148 1.808 18.078 1.808 3.615 0 7.833-.603 9.038-1.808v-10.243s-.789.603-3.615.603c-1.006 0-2.013-.844-2.32-2.525"/>
        <path stroke="#000" stroke-width="2.5" d="M330.662 172.152c10.702 6.55-7.045 53.962-13.028 53.022-5.984-.94-29.528-14.888-29.528-20.733 0-5.844 31.269-39.2 42.556-32.289zM379.538 248.756c1.41 2.838 3.146 5.598 4.706 6.851 19.012 15.238 54.866 32.163 57.355 33.139 1.555.602 4.152 2.627 5.876 4.049a7.376 7.376 0 1 0 7.23-9.864c-1.205-.355-3.555-1.078-7.96-3.47-4.405-2.392-39.77-31.259-45.923-34.53.108-9.195-2.85-24.704-4.315-29.524"/>
        <path stroke="#FFF" stroke-linecap="round" stroke-linejoin="round" stroke-width="5" d="M128.389 38.278c27.292 16.818 38.005 51.182 25.103 80.527-12.902 29.345-45.468 44.686-76.314 35.949-30.845-8.737-50.526-38.877-46.118-70.628 4.408-31.75 31.554-55.391 63.614-55.398v64.223l33.715-54.673zM94.674 92.95h64.23M207.292 80.69c1.513 0 6.539-14.738 16.68-14.738 8.949 0 4.514 30.668 22.833 30.668 14.655 0 18.578-20.106 24.284-20.106 2.983 0 2.814 2.217 5.797 2.217 7.231 0 8.262-29.138 18.572-29.138M37.283 300.784l37.192-37.188 19.662 19.655 76.8-76.791 14.523 14.526 41.26-41.26 28.111 28.107 50.353-50.346"/>
        <path stroke="#000" stroke-linecap="round" stroke-linejoin="round" stroke-width="2.5" d="M346.19 163.397v11.027c0 1.205 5.183 1.687 7.412 1.687M346.19 150.931v12.466"/>
        <path stroke="#000" stroke-linecap="round" stroke-width="2.5" d="M363.919 159.541v7.056"/>
    </g>
</svg>
